# Blender v2.76 (sub 0) OBJ File: 'enemy_near.blend'
# www.blender.org
mtllib enemy_near.mtl
o Cone.001_Cone.002
v 0.000000 -0.000000 0.500000
v 0.000000 -0.500000 0.500000
v 0.433013 0.250000 0.500000
v 0.000000 0.000000 -0.500000
v -0.433013 0.250000 0.500000
vn 0.000000 0.000000 1.000000
vn 0.840200 -0.485100 -0.242500
vn -0.000000 0.970100 -0.242500
vn -0.840200 -0.485100 -0.242500
usemtl None
s off
f 1//1 2//1 3//1
f 1//1 3//1 5//1
f 1//1 5//1 2//1
f 2//2 4//2 3//2
f 3//3 4//3 5//3
f 5//4 4//4 2//4
