# Blender v2.76 (sub 0) OBJ File: 'enemy_far.blend'
# www.blender.org
mtllib enemy_far.mtl
o Cone.002_Cone.003
v 0.000000 -0.000000 0.500000
v 0.000000 0.000000 -0.500000
v 0.000000 -0.400000 0.500000
v 0.000000 -0.100000 -0.500000
v 0.400000 0.000000 0.500000
v 0.100000 0.000000 -0.500000
v -0.000000 0.400000 0.500000
v -0.000000 0.100000 -0.500000
v -0.400000 -0.000000 0.500000
v -0.100000 0.000000 -0.500000
vn 0.000000 0.000000 1.000000
vn 0.000000 0.000000 -1.000000
vn 0.691700 -0.691700 -0.207500
vn 0.691700 0.691700 -0.207500
vn -0.691700 0.691700 -0.207500
vn -0.691700 -0.691700 -0.207500
usemtl None
s off
f 1//1 3//1 5//1
f 2//2 6//2 4//2
f 3//3 4//3 6//3 5//3
f 1//1 5//1 7//1
f 2//2 8//2 6//2
f 5//4 6//4 8//4 7//4
f 1//1 7//1 9//1
f 2//2 10//2 8//2
f 7//5 8//5 10//5 9//5
f 1//1 9//1 3//1
f 2//2 4//2 10//2
f 9//6 10//6 4//6 3//6
