# Blender v2.76 (sub 0) OBJ File: 'engine.blend'
# www.blender.org
mtllib engine.mtl
o Engine_Cylinder.001
v 0.000000 0.000000 -1.178378
v 0.000000 -0.000000 0.750000
v 0.000000 0.799020 -0.292736
v 0.000000 0.799020 0.750000
v 0.567321 0.623490 -0.292736
v 0.567321 0.623490 0.750000
v 0.760418 -0.222521 -0.292736
v 0.760418 -0.222521 0.750000
v 0.433884 -0.454607 -0.292736
v 0.433884 -0.454607 0.750000
v -0.433884 -0.454606 -0.292736
v -0.433884 -0.454607 0.750000
v -0.765433 -0.222521 -0.292736
v -0.765433 -0.222521 0.750000
v -0.572337 0.623490 -0.292736
v -0.572337 0.623490 0.750000
vn 0.223900 0.723600 -0.652900
vn 0.000000 -0.000000 1.000000
vn 0.295600 0.955300 0.000000
vn 0.768300 0.175400 -0.615600
vn 0.974900 0.222500 0.000000
vn 0.474100 -0.667100 -0.574700
vn 0.579300 -0.815100 -0.000000
vn -0.000000 -0.889600 -0.456700
vn -0.000000 -1.000000 -0.000000
vn -0.469500 -0.670700 -0.574300
vn -0.573500 -0.819200 -0.000000
vn -0.766200 0.174900 -0.618300
vn -0.974900 0.222500 0.000000
vn -0.222000 0.724000 -0.653100
vn -0.293200 0.956000 0.000000
usemtl None
s off
f 1//1 3//1 5//1
f 2//2 6//2 4//2
f 3//3 4//3 6//3 5//3
f 1//4 5//4 7//4
f 2//2 8//2 6//2
f 5//5 6//5 8//5 7//5
f 1//6 7//6 9//6
f 2//2 10//2 8//2
f 7//7 8//7 10//7 9//7
f 1//8 9//8 11//8
f 2//2 12//2 10//2
f 9//9 10//9 12//9 11//9
f 1//10 11//10 13//10
f 2//2 14//2 12//2
f 11//11 12//11 14//11 13//11
f 1//12 13//12 15//12
f 2//2 16//2 14//2
f 13//13 14//13 16//13 15//13
f 1//14 15//14 3//14
f 2//2 4//2 16//2
f 15//15 16//15 4//15 3//15
